<svg width="70" height="70" viewBox="0 0 70 70" fill="none" xmlns="http://www.w3.org/2000/svg">
<path d="M34.9999 8.74993C25.3357 8.74993 17.5001 16.5858 17.5001 26.2501C17.5001 35 26.25 43.8867 26.25 52.4996H43.7495C43.7495 43.6133 52.4997 35 52.4997 26.2501C52.4997 16.5858 44.6646 8.74993 34.9999 8.74993ZM44.2411 37.311C42.4979 40.7764 40.7162 44.3316 39.8747 48.1251H30.1037C29.262 44.4467 27.5188 40.9475 25.814 37.5293C23.7887 33.4578 21.8748 29.6126 21.8748 26.2501C21.8748 19.0126 27.7626 13.125 34.9999 13.125C42.2372 13.125 48.1251 19.0126 48.1251 26.2501C48.1253 29.5743 46.236 33.334 44.2411 37.311ZM43.7495 63.438C43.7495 64.6467 42.772 65.625 41.5627 65.625H41.1608C40.2599 68.1713 37.8535 70 35.0001 70C32.1459 70 29.7405 68.1713 28.839 65.625H28.4374C27.2284 65.625 26.2502 64.6467 26.2502 63.438C26.2502 62.2288 27.2284 61.2498 28.4374 61.2498H41.5627C42.772 61.2498 43.7495 62.2288 43.7495 63.438ZM43.7495 56.8753C43.7495 58.0847 42.772 59.0623 41.5627 59.0623H28.4374C27.2284 59.0623 26.2502 58.0847 26.2502 56.8753C26.2502 55.6661 27.2284 54.6878 28.4374 54.6878H41.5627C42.772 54.6878 43.7495 55.6661 43.7495 56.8753ZM13.3599 11.2284L17.2991 13.5051C16.4448 14.6888 15.7057 15.9448 15.0991 17.2863L11.1723 15.0216L13.3599 11.2284ZM34.9999 4.37518C34.2481 4.37518 33.5431 4.5206 32.8123 4.59735V0H37.1874V4.59735C36.457 4.52046 35.752 4.37518 34.9999 4.37518ZM22.255 8.54925L19.9782 4.61005L23.7719 2.4221L26.0365 6.34846C24.6947 6.95554 23.439 7.69476 22.255 8.54925ZM54.9055 17.2863C54.2982 15.9448 53.5556 14.6888 52.7011 13.5057L56.64 11.2283L58.8276 15.0224L54.9055 17.2863ZM47.7443 8.54521C46.5652 7.69476 45.3049 6.95554 43.9683 6.34861L46.2325 2.42224L50.0178 4.61019L47.7443 8.54521ZM13.3556 28.4377H8.74991V24.063H13.3472C13.2705 24.7934 13.1251 25.4982 13.1251 26.2502C13.1251 26.9935 13.2705 27.7115 13.3556 28.4377ZM61.2501 24.0628V28.4376H56.6447C56.7295 27.7113 56.8751 26.9933 56.8751 26.2499C56.8751 25.4979 56.7295 24.7933 56.6529 24.0627H61.2501V24.0628ZM54.8543 35.1883L58.8274 37.4782L56.6399 41.2682L53.0593 39.2006C53.7044 37.8794 54.3028 36.547 54.8543 35.1883ZM15.1288 35.1963C15.6715 36.5556 16.2698 37.8969 16.9103 39.2214L13.3601 41.2682L11.1724 37.4782L15.1288 35.1963Z" fill="white"/>
</svg>
