<svg width="76" height="76" viewBox="0 0 76 76" fill="none" xmlns="http://www.w3.org/2000/svg">
<path d="M14.915 60.1666H50.6667C51.5065 60.1666 52.312 60.5003 52.9058 61.0941C53.4997 61.688 53.8333 62.4935 53.8333 63.3333C53.8333 64.1732 53.4997 64.9786 52.9058 65.5725C52.312 66.1663 51.5065 66.5 50.6667 66.5H9.5C8.94715 66.5001 8.40389 66.3555 7.92426 66.0806C7.44463 65.8056 7.04533 65.4099 6.76609 64.9328C6.48685 64.4556 6.33739 63.9137 6.33258 63.3609C6.32777 62.808 6.46777 62.2636 6.73867 61.7816L35.2387 11.115C35.5139 10.6246 35.9148 10.2164 36.4001 9.93228C36.8854 9.64817 37.4377 9.49841 38 9.49841C38.5624 9.49841 39.1146 9.64817 39.5999 9.93228C40.0852 10.2164 40.4861 10.6246 40.7613 11.115L69.2613 61.7816C69.6729 62.514 69.7766 63.3798 69.5498 64.1887C69.3229 64.9975 68.784 65.6831 68.0517 66.0946C67.3193 66.5062 66.4535 66.6099 65.6446 66.3831C64.8358 66.1562 64.1502 65.6173 63.7387 64.885L38 19.1266L14.915 60.1666ZM34.8333 34.8333C34.8333 33.9935 35.167 33.188 35.7608 32.5941C36.3547 32.0003 37.1602 31.6666 38 31.6666C38.8399 31.6666 39.6453 32.0003 40.2392 32.5941C40.833 33.188 41.1667 33.9935 41.1667 34.8333V44.3333C41.1667 45.1732 40.833 45.9786 40.2392 46.5725C39.6453 47.1663 38.8399 47.5 38 47.5C37.1602 47.5 36.3547 47.1663 35.7608 46.5725C35.167 45.9786 34.8333 45.1732 34.8333 44.3333V34.8333ZM38 57C37.1602 57 36.3547 56.6663 35.7608 56.0725C35.167 55.4786 34.8333 54.6732 34.8333 53.8333C34.8333 52.9935 35.167 52.188 35.7608 51.5941C36.3547 51.0003 37.1602 50.6666 38 50.6666C38.8399 50.6666 39.6453 51.0003 40.2392 51.5941C40.833 52.188 41.1667 52.9935 41.1667 53.8333C41.1667 54.6732 40.833 55.4786 40.2392 56.0725C39.6453 56.6663 38.8399 57 38 57Z" fill="white"/>
</svg>
