<svg width="83" height="68" viewBox="0 0 83 68" fill="none" xmlns="http://www.w3.org/2000/svg">
<path d="M41.5 9.03125C18.5792 9.03125 0 20.2109 0 34C0 47.7891 18.5792 58.9688 41.5 58.9688C64.4208 58.9688 83 47.7891 83 34C83 20.2109 64.4208 9.03125 41.5 9.03125ZM65.0273 50.0013C65.0273 50.133 69.1794 44.9926 65.8573 41.5416C61.869 37.0281 54.9694 43.7856 54.9694 43.7856C49.5169 33.0352 41.2978 50.4688 41.2978 50.4688C41.2978 50.4688 34.1726 34.0404 28.0583 43.9939C28.1902 43.9939 22.9867 38.0588 17.8024 40.8468C14.0802 44.5634 17.8024 49.5401 17.8024 49.5401C-1.60467 42.7699 -2.86669 22.9946 24.0849 14.9324C16.4744 24.4545 38.1098 37.5615 36.5136 14.2014L41.0999 18.2176C41.0999 18.2176 45.7202 14.4011 45.7202 14.1355C45.1882 37.4956 65.6594 23.7915 58.747 15.164C83.0702 22.1935 87.2245 38.9853 65.0273 50.0013Z" fill="white"/>
</svg>
