<svg width="72" height="68" viewBox="0 0 72 68" fill="none" xmlns="http://www.w3.org/2000/svg">
<path d="M5 29.5C2.51472 29.5 0.5 31.5147 0.5 34C0.5 36.4853 2.51472 38.5 5 38.5V29.5ZM70.182 37.182C71.9393 35.4246 71.9393 32.5754 70.182 30.818L41.5442 2.18019C39.7868 0.422836 36.9376 0.422836 35.1802 2.18019C33.4228 3.93755 33.4228 6.7868 35.1802 8.54416L60.636 34L35.1802 59.4558C33.4228 61.2132 33.4228 64.0624 35.1802 65.8198C36.9376 67.5772 39.7868 67.5772 41.5442 65.8198L70.182 37.182ZM5 38.5H67V29.5H5V38.5Z" fill="#FFF500"/>
</svg>
