<?xml version="1.0" encoding="utf-8"?>
<!-- Generator: Adobe Illustrator 22.0.1, SVG Export Plug-In . SVG Version: 6.00 Build 0)  -->
<svg version="1.1" id="Layer_1" xmlns="http://www.w3.org/2000/svg" xmlns:xlink="http://www.w3.org/1999/xlink" x="0px" y="0px"
	 viewBox="0 0 75 75" style="enable-background:new 0 0 75 75;" xml:space="preserve">
<style type="text/css">
	.st0{fill:#D7D3E0;}
</style>
<g id="surface1">
	<path class="st0" d="M57.2,36.6c-0.8,0-1.5,0.7-1.5,1.5v21.4H43.5V46.3c0-0.8-0.7-1.5-1.5-1.5h-9.5c-0.8,0-1.5,0.7-1.5,1.5v10
		c0,0.8,0.7,1.5,1.5,1.5c0.8,0,1.5-0.7,1.5-1.5v-8.6h6.5v11.7H19.2V30.6L37.6,16L56.3,31c0.7,0.5,1.6,0.4,2.1-0.2
		c0.5-0.7,0.4-1.6-0.2-2.1L38.6,12.9c-0.5-0.5-1.3-0.5-1.8,0L16.8,28.7c-0.3,0.3-0.6,0.7-0.6,1.2v31c0,0.8,0.7,1.5,1.5,1.5h39.5
		c0.8,0,1.5-0.7,1.5-1.5V38C58.8,37.2,58.1,36.6,57.2,36.6z"/>
</g>
</svg>
