<?xml version="1.0" encoding="utf-8"?>
<!-- Generator: Adobe Illustrator 22.0.1, SVG Export Plug-In . SVG Version: 6.00 Build 0)  -->
<svg version="1.1" id="Layer_1" xmlns="http://www.w3.org/2000/svg" xmlns:xlink="http://www.w3.org/1999/xlink" x="0px" y="0px"
	 viewBox="0 0 80 87.8" style="enable-background:new 0 0 80 87.8;" xml:space="preserve">
<style type="text/css">
	.st0{fill:#D7D3E0;}
</style>
<g id="Capa_1">
</g>
<g id="Capa_2">
	<g>
		<path class="st0" d="M69.6,70.2L34.3,75l-10.4-6c-6.1-4-10.5-7.7-11.6-9.1c1.3,0.2,4.6,1.4,12.6,7.7c0.5,0.6,1.4,1.2,3.4,1.2
			c1.3,0,2.9-0.3,4.7-0.9c1.2-0.4,2.4-0.6,3.6-0.6c3.1,0,5.1,1.2,5.1,1.2l0.4,0.3l1.5-2.4l-0.4-0.3c-0.1-0.1-2.7-1.6-6.6-1.6
			c-1.5,0-3,0.2-4.5,0.7c-1.8,0.6-3,0.7-3.8,0.7c1.1-1.1,2.7-2.4,4.7-3.2c1-0.4,2.2-0.6,3.5-0.6c2.3,0,4.3,0.5,4.5,0.6
			c0.6,0.2,1.2-0.1,1.6-0.6c0,0,2.3-3.5,6-4.5c3.5-0.7,6.2-0.4,7.9,0.9c1.6,1.2,1.8,2.9,1.8,3c0.1,0.7,0.7,1.3,1.4,1.3h10.1V60h-9
			c-0.3-1-1-2.5-2.6-3.7c-2.4-1.8-5.7-2.3-10.2-1.4c-3.6,0.9-6,3.5-7.1,4.9c-1-0.2-2.6-0.5-4.3-0.5s-3.3,0.3-4.6,0.8
			c-2.8,1.1-5.1,3.1-6.3,4.5c-7.6-5.9-12.4-8.3-14.9-7.4c-1,0.4-1.4,1.1-1.5,1.4c-0.3,0.9-1.2,3.5,13,12.7l10.9,6.3
			c0.2,0.1,0.5,0.2,0.7,0.2c0.1,0,0.1,0,0.2,0L69.5,73H70L69.6,70.2z"/>
		<g>
			<path class="st0" d="M39.8,1.2c-15.6,0-28.4,11.7-28.4,26.2s12.7,26.2,28.4,26.2s28.4-11.7,28.4-26.2S55.4,1.2,39.8,1.2z
				 M65.3,29.9c-0.2-0.1-0.3-0.4-0.5-0.6L64.7,29c-0.3-0.5-0.6-1.1-1-1.5c-0.3-0.3-0.9-0.6-1.6-1c-0.8-0.4-2.2-1.2-2.3-1.7l0,0l0,0
				c0-0.2-0.3-0.4-0.5-0.4s-0.4,0.3-0.4,0.5c0.1,0.9,0.4,1.6,0.8,2.4c0.2,0.5,0.4,0.9,0.6,1.5c0,0.2,0.1,0.4,0.1,0.6
				c0,0.6,0.1,1.2,0.7,1.7c0.1,0.1,0.6,0.2,1,0.3c0.1,1.9-0.5,3-1.6,3.6c-0.8,0.4-0.9,0.9-0.8,1.4c0,0.2,0,0.5-0.1,0.9
				s-0.4,0.7-0.7,1.1c-0.5,0.5-1,1.2-0.5,2.1c0.2,0.3,0.3,0.6,0.3,0.8c0,0.3-0.2,0.6-0.5,0.9c-0.4,0.6-0.7,1.4-1,2.2
				C57.1,44.6,57,44.8,57,45c-0.9,0.7-1.8,1.4-2.8,2c-0.2-0.1-0.4-0.1-0.7-0.2c-1.5-0.7-2.8-2.1-3.3-3.5c-0.1-0.3-0.1-0.6-0.1-0.9
				c0-0.3,0-0.6,0-0.9c-0.1-0.7-0.5-1.3-0.9-1.8c-0.1-0.1-0.2-0.3-0.3-0.4c-0.3-0.5-0.5-1.2-0.1-1.5l0.1-0.1
				c0.2-0.2,0.5-0.4,0.5-0.8c0-0.2-0.1-0.4-0.2-0.6c-0.2-0.2-0.6-0.4-0.9-0.3c-0.1,0-0.3,0-0.4,0c-0.2,0-0.3,0-0.4,0.1V36
				c0-0.2,0-0.4-0.3-0.6c-0.3-0.3-0.6-0.3-0.9-0.3c-0.1,0-0.2,0-0.3,0c-0.6-0.1-1.2-0.2-1.7-0.2c-1.7-0.2-2.8-0.3-3.8-2.3
				c-0.1-0.1-0.1-0.2-0.1-0.3s0.1-0.2,0.1-0.4l0.1-0.1c0.2-0.5,0.4-1.1,0.5-1.6s0.2-1,0.4-1.4c0.6-1.2,2.7-2.9,4-3.4
				c0.7-0.3,1.3-0.3,1.8-0.1c0.6,0.2,1,0.7,1,1.2c0,0.2,0.2,0.4,0.4,0.4l0,0c1.2,0,2-0.5,2.7-1c0.6-0.4,1.1-0.7,1.8-0.8
				c0.2,0,0.4,0,0.6,0c1.3,0,2.6,0.1,3.8,0.3c0.6,0.1,1.2-0.4,1.8-0.9c0.2-0.2,0.4-0.3,0.5-0.4c0.9-0.6,1.8-1.1,1.7-2.6
				c0-0.8-0.6-1.4-1.1-1.9c-0.5-0.4-0.8-0.8-0.8-1.3c0.1-0.1,0.3-0.1,0.4,0c0.2,0.1,0.4,0.3,0.6,0.6c0.1,0.1,0.1,0.2,0.2,0.3
				c0.5,0.6,1.1,0.8,1.7,0.6c0.1,0,0.2-0.1,0.3-0.2c0.1-0.3,0.2-0.6,0.2-0.9c1.3,2.9,2.1,6,2.1,9.3C65.4,28.2,65.4,29.1,65.3,29.9z
				 M61.3,14.6c-0.1,0-0.3,0-0.4,0c-0.8,0-1.4,0.3-1.8,0.9c-0.1,0.2-0.2,0.4-0.3,0.6c-0.1,0.2-0.2,0.5-0.4,0.6
				c-0.1,0-0.1,0.1-0.2,0.1c-0.2,0.1-0.4,0.2-0.5,0.5c-0.1,0.2-0.1,0.4-0.1,0.5v0.1c0,0.1-0.1,0.2-0.1,0.3c-0.1,0-0.2-0.1-0.3-0.1
				c-0.3,0-0.7,0.2-0.8,0.4c-0.2,0.4-0.2,0.8-0.1,1.2c0,0.2,0.1,0.4,0.1,0.5c-0.3-0.2-0.5-0.5-0.7-0.7c-0.1-0.1-0.2-0.1-0.3-0.1l0,0
				c-0.1,0-0.2,0-0.3,0.1s-0.2,0.2-0.3,0.3L54.4,19c0-0.2-0.1-0.4-0.3-0.6s-0.5-0.2-0.7-0.2s-0.4,0-0.6-0.1c-1.1-0.2-2.7-0.4-3.2,1
				c-0.1,0.3-0.2,0.6-0.2,0.9c0,0.1,0,0.3-0.1,0.4c-0.2,1-1.1,1.9-2.1,1.9l0,0c-0.5,0-1-0.3-1.3-0.7c-0.2-0.3-0.4-0.6-0.3-1
				c0.3-0.1,0.6-0.2,1-0.2c0.1,0,0.1,0,0.2-0.1c0.3-0.2,0.5-0.5,0.5-0.9c0-0.6-0.4-1.2-1-1.6c-0.1-0.1-0.2-0.1-0.4-0.2
				c-0.5-0.3-1-0.5-1-1c-0.1-0.3,0.2-0.7,0.5-1.1c0.3-0.4,0.6-0.8,0.7-1.4c0.1-0.5-0.1-1-0.3-1.4c-0.2-0.5-0.3-0.9-0.2-1.1
				c0.1-0.1,0.2-0.2,0.4-0.3c0.7-0.5,2.3-2.8,2.1-4.1c-0.1-0.5-0.4-0.8-0.9-0.9c-1.1-0.2-1.6,1.1-1.9,2.1c-0.2,0.5-0.5,1.3-0.7,1.4
				c0,0-0.1,0-0.2-0.1c0-0.7-0.1-1.4-0.2-2c0-0.1-0.1-0.3-0.3-0.3c-0.1,0-0.3,0-0.4,0.1l-1.4,1.1C41.9,8.8,41.6,9,41.3,9
				c-0.2,0-0.4,0-0.4-0.2c0-0.1,0-0.3,0.1-0.5c0.6-1.5,0.9-3,1-4.6C50,4.6,57.1,8.6,61.3,14.6z M28.7,6.1c-0.4,0.7-1.3,1.4-1.6,1.6
				c-1.5,1-2.1,2.3-2,4c0,0.1,0,0.2,0,0.3s-0.1,0.2-0.2,0.3l-0.9,1c-0.1,0.1-0.1,0.2-0.1,0.4c0.1,0.5,0.6,0.5,0.8,0.5h0.1
				c0,0,0.1,0.1,0,0.3c-0.1,0.8-0.4,1.5-0.8,2.3c-0.6,1.1-1.2,2.2-0.8,3.6c0,0.1,0.1,0.2,0.1,0.4c0.1,0.3,0.2,0.5,0.1,0.7
				c-0.1,0.5-0.9,1-1.6,1.4c-0.5,0.3-1,0.6-1.4,0.9c-0.6,0.7-0.7,0.9-0.5,1.6c0,0.1,0,0.2,0.1,0.3c-0.3-0.5-0.7-1-1.1-1.4
				c-0.2-0.1-0.4-0.3-0.7-0.3c-0.2,0-0.3,0-0.4,0.1c-0.7,0.2-1.3,0.7-1.9,1.2c-0.5,0.4-0.9,0.8-1.4,1c-0.1,0-0.2,0.1-0.2,0.1
				c-0.1,0-0.2,0.1-0.3,0.1C14.5,17.4,20.4,9.8,28.7,6.1z M14.3,30.1c0.3,0,0.7-0.1,0.9-0.1c0.3-0.1,0.5-0.1,0.7-0.1
				c-0.1,0.1-0.2,0.2-0.3,0.3c-0.3,0.3-0.6,0.6-0.6,1c-0.1,0.4,0,0.9,0.8,1.5c0.2,0.1,0.3,0.3,0.5,0.4c0.3,0.3,0.7,0.7,1.3,0.8
				l0.3,0.1c0.5,0.1,1,0.2,1.3,0.5c0.2,0.2,0.3,0.6,0.4,1s0.2,0.8,0.4,1.1c0.5,0.8,1.3,1.1,2.1,1.4c0.3,0.1,0.7,0.3,1,0.4
				c0.5,0.3,0.9,0.6,1.3,1c0.7,0.6,1.4,1.2,2.3,1.4c0.1,0,0.2,0,0.2,0.1c-0.4,1.7-0.9,3.8-2,5.4C19.1,42.7,15.2,36.8,14.3,30.1z
				 M25.6,46.9c1.2-1.8,1.7-3.9,2.1-5.7c0-0.1,0.1-0.3,0-0.5c-0.1-0.4-0.6-0.6-0.9-0.6c-0.7-0.2-1.3-0.7-1.9-1.2
				c-0.5-0.4-0.9-0.8-1.5-1.1c-0.3-0.2-0.7-0.3-1.1-0.5c-0.7-0.3-1.3-0.5-1.7-1.1c-0.1-0.2-0.2-0.6-0.3-0.9c-0.1-0.5-0.2-1-0.6-1.4
				c-0.5-0.5-1.1-0.7-1.7-0.8L17.7,33c-0.4-0.1-0.6-0.3-0.9-0.6c-0.2-0.2-0.3-0.3-0.5-0.5c-0.2-0.1-0.5-0.4-0.5-0.7
				c0-0.1,0.2-0.4,0.4-0.5c0.3-0.3,0.6-0.7,0.5-1.1c-0.1-0.3-0.2-0.5-0.6-0.6c-0.5-0.2-1-0.1-1.3,0c-0.4,0.1-0.6,0.1-0.8,0
				c0-0.6-0.1-1.2-0.1-1.7c0.1-0.1,0.1-0.1,0.2-0.2c0.1-0.1,0.2-0.1,0.4-0.1c0.1,0,0.2-0.1,0.3-0.1c0.7-0.2,1.2-0.7,1.7-1.1
				c0.5-0.4,1-0.8,1.6-1c0,0,0,0,0.2,0.1c0.5,0.4,0.9,0.9,1.1,1.5c0.1,0.3,0.3,0.9,0.9,1c0.5,0.1,0.7-0.1,0.8-0.3
				c0.3-0.4,0.1-1-0.1-1.4c0-0.1-0.1-0.1-0.1-0.1c0-0.2-0.1-0.3-0.1-0.5c-0.1-0.4-0.1-0.4,0.3-0.8c0.2-0.3,0.7-0.5,1.2-0.8
				c0.9-0.5,1.9-1.1,2-2c0.1-0.4-0.1-0.8-0.2-1.1c0-0.1-0.1-0.2-0.1-0.3c-0.3-1,0.2-2,0.7-3c0.4-0.8,0.9-1.7,0.9-2.6
				c0-0.6-0.2-1-0.6-1.2l0.4-0.5c0.1-0.1,0.3-0.3,0.4-0.6c0.1-0.2,0.1-0.5,0-0.7c-0.1-1.4,0.4-2.3,1.6-3.2c1.3-0.9,2-1.9,2.1-2.7
				c3.1-1.2,6.4-1.9,10-1.9c0.4,0,0.9,0,1.3,0c-0.1,1.5-0.4,2.9-1,4.3c-0.1,0.3-0.3,0.6-0.1,1c0.2,0.6,0.8,0.8,1.4,0.7
				c0.5-0.1,0.8-0.4,1.1-0.6l0.9-0.7c0.1,0.5,0.1,0.9,0.1,1.4c0,0.1,0,0.2,0.1,0.3c0.4,0.4,0.7,0.5,1.1,0.4c0.6-0.1,0.9-1,1.3-1.9
				c0.3-0.8,0.6-1.7,1-1.6C46.9,7,47,7.1,47,7.3c0.2,0.8-1.1,2.8-1.8,3.3c-0.2,0.1-0.3,0.2-0.5,0.4c-0.5,0.6-0.2,1.3,0,1.9
				c0.1,0.4,0.3,0.7,0.3,1.1c0,0.3-0.3,0.6-0.5,1c-0.3,0.5-0.7,1-0.6,1.7c0.1,0.8,0.9,1.2,1.4,1.5c0.1,0.1,0.2,0.1,0.3,0.2
				c0.3,0.2,0.6,0.6,0.6,0.9c0,0.1,0,0.1-0.1,0.2c-0.4,0.1-0.9,0.2-1.3,0.3c-0.1,0-0.2,0.2-0.3,0.3c-0.2,0.6,0,1.3,0.5,1.9
				s1.2,1,1.9,1l0,0c1.3,0,2.6-1.1,2.9-2.5c0-0.2,0.1-0.3,0.1-0.5c0-0.3,0.1-0.5,0.2-0.7c0.3-0.7,1.2-0.7,2.4-0.5
				c0.2,0,0.5,0.1,0.7,0.1h0.2c0,0,0,0.1,0.1,0.2l0.4,1.6c0,0.2,0.2,0.3,0.3,0.3c0.2,0,0.3,0,0.4-0.2c0.1-0.2,0.3-0.4,0.4-0.6
				c0.2,0.2,0.4,0.4,0.6,0.6c0.1,0.1,0.3,0.2,0.6,0.2c0.2,0,0.4-0.2,0.5-0.4c0.2-0.4,0.1-0.9,0.1-1.2c0-0.2-0.1-0.5,0-0.6l0.1-0.1
				c0.1,0.1,0.1,0.2,0.3,0.2c0.1,0,0.2,0,0.3,0c0.4-0.2,0.6-0.6,0.7-1v-0.2c0-0.1,0-0.2,0-0.2s0.1-0.1,0.2-0.2
				c0.1-0.1,0.2-0.1,0.3-0.2c0.3-0.2,0.5-0.6,0.6-0.9c0.1-0.2,0.1-0.3,0.2-0.4c0.2-0.3,0.7-0.5,1.2-0.5c0.3,0,0.7,0,1,0.1
				c0.1,0.1,0.1,0.2,0.2,0.3c0.4,1,0.5,1.9,0.3,2.6c-0.2,0-0.4-0.2-0.5-0.4c-0.1-0.1-0.1-0.2-0.2-0.2c-0.2-0.3-0.5-0.6-0.9-0.8
				c-0.4-0.2-0.9-0.2-1.2,0s-0.5,0.4-0.5,0.8c0,0.8,0.6,1.4,1.1,1.9c0.4,0.4,0.8,0.8,0.8,1.3c0,1-0.4,1.3-1.3,1.8
				c-0.2,0.1-0.4,0.3-0.7,0.5s-0.8,0.7-1,0.7c-1.3-0.3-2.7-0.3-4-0.4c-0.3,0-0.5,0-0.8,0c-0.9,0.1-1.6,0.6-2.2,1
				c-0.6,0.4-1.1,0.7-1.8,0.8c-0.2-0.7-0.8-1.3-1.6-1.6c-0.7-0.2-1.6-0.2-2.5,0.1c-1.5,0.6-3.8,2.4-4.5,3.8
				c-0.3,0.5-0.4,1.1-0.5,1.7c-0.1,0.5-0.2,1-0.4,1.4v0.1c-0.1,0.2-0.2,0.5-0.2,0.8s0.1,0.5,0.2,0.7c1.2,2.4,2.7,2.6,4.5,2.8
				c0.5,0.1,1.1,0.1,1.6,0.2c0.1,0,0.2,0,0.3,0c0.2,0,0.3,0,0.4,0.1l0,0c0,0.2,0,0.7,0.6,0.9c0.3,0.1,0.5,0,0.8,0c0.1,0,0.2,0,0.3,0
				l0,0c0.1,0,0.1,0,0.2,0l-0.1,0.1c-0.1,0-0.1,0.1-0.2,0.1c-0.7,0.7-0.6,1.9,0,2.7c0.1,0.1,0.2,0.3,0.3,0.4
				c0.3,0.5,0.7,0.9,0.8,1.4c0,0.3,0,0.5,0,0.7c0,0.4,0,0.8,0.1,1.3c0.5,1.7,2,3.2,3.8,4l0,0c-3.9,2.2-8.5,3.5-13.4,3.5
				C34.5,50.8,29.7,49.4,25.6,46.9z M58.4,43.5c0.2-0.4,0.3-0.7,0.5-1c0.3-0.4,0.6-0.8,0.6-1.4c0-0.5-0.2-1-0.4-1.3
				s-0.1-0.5,0.4-1.1c0.3-0.4,0.7-0.8,0.9-1.4c0.2-0.5,0.1-0.9,0.1-1.2s0-0.3,0.4-0.5c1.6-0.9,2.2-2.6,2-5.2c0-0.2-0.2-0.4-0.5-0.4
				c-0.2,0-0.3,0.1-0.4,0.3c-0.2,0-0.4-0.1-0.5-0.1c-0.2-0.2-0.3-0.5-0.3-1c0-0.3,0-0.5-0.1-0.8c-0.2-0.6-0.4-1.1-0.6-1.6
				c-0.1-0.1-0.1-0.3-0.2-0.4c0.4,0.3,0.9,0.5,1.3,0.8c0.6,0.3,1.1,0.6,1.4,0.8c0.3,0.3,0.6,0.8,0.8,1.3l0.2,0.3
				c0.2,0.5,0.6,0.9,1.1,1.1C64.4,35.7,61.9,40.1,58.4,43.5z"/>
			<path class="st0" d="M41.6,15.7c0.2,0,0.3,0,0.5-0.1c0.8-0.3,1.4-1.2,1.4-2.1c-0.1-1-1.1-1.5-1.7-1.5c-0.3,0-0.5,0.1-0.6,0.3
				c-0.1,0.1-0.2,0.3,0,0.6c0,0.1,0.1,0.2,0.2,0.3c0.1,0.1,0.1,0.2,0.1,0.3c0,0.2-0.1,0.4-0.3,0.6l-0.1,0.1
				c-0.4,0.5-0.3,0.9-0.2,1.1C41,15.6,41.2,15.7,41.6,15.7z M41.7,14.5c0.2-0.3,0.5-0.7,0.4-1.1c0-0.2-0.2-0.4-0.3-0.5l-0.1-0.1
				c0.3,0,1,0.3,1,0.9c0,0.6-0.4,1.2-0.9,1.4c-0.2,0.1-0.4,0-0.4,0C41.4,15,41.4,14.9,41.7,14.5l-0.3-0.1L41.7,14.5z"/>
			<path class="st0" d="M22.4,28.5c-0.4-0.1-0.9-0.2-1.3-0.3c-0.1,0-0.2,0-0.3-0.1c-0.2,0-0.4-0.1-0.7-0.1c-0.4,0-0.8,0.2-1.1,0.5
				c0,0-0.2,0.1-0.2,0.3c0,0.2,0,0.4,0.3,0.6c0.5,0.4,1.1,0.8,1.8,1c0.1,0,0.2,0,0.3,0c0.5,0,2-0.2,2.2-1
				C23.6,28.8,22.8,28.6,22.4,28.5z M21.3,29.7c-0.1,0-0.2,0-0.2,0c-0.5-0.1-1-0.4-1.4-0.8c0.1-0.1,0.3-0.1,0.5-0.1
				c0.1,0,0.3,0,0.5,0.1c0.1,0,0.2,0,0.3,0.1c0.3,0.1,0.8,0.1,1.2,0.3c0.3,0.1,0.4,0.1,0.5,0.2C22.5,29.5,21.9,29.7,21.3,29.7z"/>
		</g>
	</g>
</g>
<g id="Capa_3">
</g>
<g id="Capa_4">
</g>
<g id="Capa_5">
</g>
<g id="Capa_6">
</g>
</svg>
