<?xml version="1.0" encoding="utf-8"?>
<!-- Generator: Adobe Illustrator 22.0.1, SVG Export Plug-In . SVG Version: 6.00 Build 0)  -->
<svg version="1.1" id="Layer_1" xmlns="http://www.w3.org/2000/svg" xmlns:xlink="http://www.w3.org/1999/xlink" x="0px" y="0px"
	 viewBox="0 0 80 80" style="enable-background:new 0 0 80 80;" xml:space="preserve">
<style type="text/css">
	.st0{fill:#D7D3E0;}
	.st1{fill:none;stroke:#D7D3E0;stroke-miterlimit:10;}
</style>
<g id="Capa_1">
</g>
<g id="Capa_2">
</g>
<g id="Capa_4">
</g>
<g id="Capa_5">
</g>
<g id="Capa_6">
</g>
<g>
	<g id="XMLID_1_">
		<g>
			<path class="st0" d="M56.4,17.2H23.4L9.6,31l29.8,30.7L70.2,31L56.4,17.2z M71.5,31.2l-32,31.5l-0.3-0.3L8.2,31.2l15-14.8h33h0.8
				L71.5,31.2z"/>
			<polygon class="st0" points="52.3,31.7 44.3,37.5 47.5,46.9 39.5,41.1 31.5,46.9 34.5,37.5 26.5,31.7 36.4,31.7 39.4,22.3 
				42.4,31.7 			"/>
		</g>
		<g>
			<polygon class="st1" points="60.9,11.5 19.1,11.5 1.3,29.3 39.3,68.5 78.5,29.3 			"/>
			<polygon class="st1" points="39.3,62.5 8.2,31.2 23.2,16.5 56.1,16.5 56.9,16.5 71.5,31.2 39.5,62.7 			"/>
			<polygon class="st1" points="23.4,17.2 9.6,31 39.4,61.7 70.2,31 56.4,17.2 			"/>
			<polygon class="st1" points="47.5,46.9 39.5,41.1 31.5,46.9 34.5,37.5 26.5,31.7 36.4,31.7 39.4,22.3 42.4,31.7 52.3,31.7 
				44.3,37.5 			"/>
		</g>
	</g>
</g>
</svg>
