<?xml version="1.0" encoding="utf-8"?>
<!-- Generator: Adobe Illustrator 22.0.1, SVG Export Plug-In . SVG Version: 6.00 Build 0)  -->
<svg version="1.1" id="Layer_1" xmlns="http://www.w3.org/2000/svg" xmlns:xlink="http://www.w3.org/1999/xlink" x="0px" y="0px"
	 viewBox="0 0 80 88" style="enable-background:new 0 0 80 88;" xml:space="preserve">
<style type="text/css">
	.st0{fill:none;stroke:#D7D3E0;stroke-width:2;stroke-miterlimit:10;}
	.st1{fill:none;stroke:#D7D3E0;stroke-miterlimit:10;}
</style>
<g id="Capa_1">
</g>
<g id="Capa_2">
</g>
<g id="Capa_3">
</g>
<g id="Capa_4">
</g>
<g>
	<path class="st0" d="M21.8,44.6L38,57.2c2.2,1.7,2.5,4.9,0.7,6.9c-4.5,5.1-13.4,12.6-22.6,8C6.4,67.2,5,57.3,15.2,45.2
		C16.9,43.3,19.8,43,21.8,44.6z"/>
	<path class="st0" d="M59,6.5C48,7.9,33.8,16.4,25.8,30c-2.4,4.1-4.1,8.3-0.2,11l17,13.4c3.6,2.6,9.4,1,12.4-2.3
		c7.2-8.1,16.1-18.4,16.9-32.7C72,17.2,71.4,5,59,6.5z"/>
	<g id="XMLID_1_">
		<g>
		</g>
		<g>
			<path class="st1" d="M56.6,41.6c-0.3,0.5-0.7,1-1.2,1.4c-2.1,1.8-4.6,1.2-7.1,0.7c0,0,1.9-0.2,2.1-1.6c0.2-1.5-2.5-2.4-3.4-1.9
				c0,0,0.2-1.8-1.6-2.2c-1.6-0.3-3.9,1.1-3.9,1.1s1-2.5,0.3-3.9C41,33.5,39.2,34,39.2,34c0.3-1.1-1.2-3.4-2.6-2.8
				c-1.4,0.5-1.1,2.4-1.1,2.4c-1.1-2.2-2.3-4.5-1.1-7c0.2-0.5,0.7-1.1,1.1-1.5c2-1.6,4.9-0.6,5.8-0.4c0.7,0.2,3.1,1,3.1,1
				s-2.4,1.8-2,3c0.5,1.3,2.8,2.1,2.8,2.1l3-3L48,29.6l1.2,0.9l1.7-0.7l-2.2,3.7c0,0,1.4,2.1,2.8,2.1c1.2,0.1,2.4-2.6,2.4-2.6
				s1.4,2.1,1.7,2.8C56,36.8,57.7,39.2,56.6,41.6z"/>
		</g>
	</g>
</g>
<g id="Capa_6">
</g>
</svg>
