<?xml version="1.0" encoding="utf-8"?>
<!-- Generator: Adobe Illustrator 22.0.1, SVG Export Plug-In . SVG Version: 6.00 Build 0)  -->
<svg version="1.1" id="Layer_1" xmlns="http://www.w3.org/2000/svg" xmlns:xlink="http://www.w3.org/1999/xlink" x="0px" y="0px"
	 viewBox="0 0 80 87.5" style="enable-background:new 0 0 80 87.5;" xml:space="preserve">
<style type="text/css">
	.st0{fill:#D7D3E0;}
</style>
<g id="Capa_1">
</g>
<g id="Capa_2">
</g>
<g id="Capa_3">
</g>
<g id="Capa_4">
	<g>
		<path class="st0" d="M14.8,18.1c0-0.2,0-0.3,0-0.5c0-2.6,0-5.1,0-7.7c0-0.2,0-0.3,0-0.5c0.1-0.7,0.6-1.2,1.3-1.2
			c0.1,0,0.2,0,0.3,0c19.3,0,38.5,0,57.8,0c0.2,0,0.4,0,0.6,0.1c0.6,0.2,1,0.7,1,1.3c0,0.1,0,0.2,0,0.3c0,17.5,0,34.9,0,52.4
			c0,2.6-0.9,4.8-2.7,6.7c-1.4,1.4-3,2.3-5,2.7c-0.7,0.1-1.3,0.2-2,0.2c-18.4,0-36.7,0-55.1,0c-2.1,0-3.7-0.8-5-2.4
			c-0.8-0.9-1.2-2-1.6-3.2c-0.3-1.1-0.4-2.2-0.5-3.4c0-0.1,0-0.2,0-0.3c0-14.2,0-28.4,0-42.7c0-0.2,0-0.3,0-0.5
			c0.1-0.8,0.8-1.3,1.3-1.3c0.1,0,0.3,0,0.4,0c2.8,0,5.6,0,8.5,0C14.4,18.1,14.6,18.2,14.8,18.1z M17.6,11.1c0,0.2,0,0.4,0,0.5
			c0,16.4,0,32.7,0,49.1c0,0.7,0,1.5,0,2.2s-0.1,1.5-0.2,2.2c-0.2,1.3-0.7,2.6-1.4,3.7c0,0,0,0.1-0.1,0.2c0.2,0,0.3,0,0.5,0
			c5.4,0,10.8,0,16.2,0c11.2,0,22.3,0,33.5,0c0.4,0,0.8,0,1.2-0.1c2.2-0.4,3.8-1.6,4.9-3.5c0.5-1,0.8-2.1,0.8-3.2
			c0-16.9,0-33.8,0-50.6c0-0.1,0-0.2,0-0.3c0,0,0-0.1,0-0.2c-0.1,0-0.2,0-0.2,0C70.9,11,18.1,11,17.6,11.1z M14.8,21
			c-0.3-0.1-4.8-0.1-7.5,0c-0.1,0-0.2,0-0.3,0c-0.1,0.2,0,0.4,0,0.5C7,34.8,7,48,7,61.3c0,0.5,0,1,0,1.5c0,0.8,0.1,1.6,0.3,2.4
			c0.2,0.8,0.5,1.5,0.9,2.2c0.3,0.5,0.7,0.9,1.1,1.2c1,0.7,2.1,0.7,3.2,0c0.5-0.3,1-0.8,1.3-1.3s0.6-1.1,0.8-1.8
			c0.3-0.9,0.3-1.9,0.3-2.8c0-13.7,0-27.4,0-41.1c0-0.1,0-0.3,0-0.4C14.8,21.1,14.8,21.1,14.8,21z"/>
		<path class="st0" d="M21.3,30.6c0.5,0,22.6,0,22.9,0c0,0.1,0,0.1,0,0.2s0,0.2,0,0.3c0,4.9,0,9.8,0,14.8c0,0.1,0,0.3,0,0.5
			c-0.1,0-0.2,0-0.2,0c-0.1,0-0.2,0-0.3,0c-7.3,0-14.6,0-21.9,0c-0.2,0-0.3,0-0.5,0c0-0.1,0-0.2,0-0.2c0-0.1,0-0.2,0-0.3
			c0-4.9,0-9.8,0-14.7C21.3,30.9,21.3,30.7,21.3,30.6z"/>
		<path class="st0" d="M22.5,64.9c-0.1-0.3-0.1-4,0-4.4c0.1,0,0.1,0,0.2,0s0.2,0,0.3,0c15,0,30,0,44.9,0c0.2,0,0.3,0,0.5,0
			c0,0.1,0,0.1,0,0.2c0,1.3,0,3.8,0,4.2h-0.1C53.1,64.9,37.8,64.9,22.5,64.9z"/>
		<path class="st0" d="M68.5,50.8c0.1,0.4,0.1,4.1,0,4.4c-0.1,0-0.1,0-0.2,0s-0.2,0-0.3,0c-15,0-30,0-45,0c-0.2,0-0.4,0-0.5,0v-0.1
			c0-1.4,0-2.7,0-4.1v-0.1h0.1C37.9,50.8,53.2,50.8,68.5,50.8z"/>
		<path class="st0" d="M48.6,45.5c-0.1-0.3-0.1-4,0-4.4c0.1,0,0.1,0,0.2,0c0.1,0,0.2,0,0.3,0c6.3,0,12.6,0,19,0c0.2,0,0.3,0,0.5,0
			c0,0.1,0,0.1,0,0.2c0,1.3,0,2.7,0,4c0,0.1,0,0.1,0,0.2h-0.1C61.8,45.5,55.2,45.5,48.6,45.5z"/>
		<path class="st0" d="M68.5,31.3c0.1,0.4,0.1,4,0,4.4c-0.1,0-0.1,0-0.2,0s-0.2,0-0.3,0c-6.3,0-12.7,0-19,0c-0.2,0-0.3,0-0.5,0v-0.1
			c0-1.4,0-2.7,0-4.1v-0.1c0.1,0,0.1,0,0.2,0c0.1,0,0.2,0,0.3,0c6.3,0,12.6,0,18.9,0C68.2,31.3,68.3,31.3,68.5,31.3z"/>
		<g>
			<path class="st0" d="M28.7,25.4l-0.5-1.3h-2.8l-0.5,1.3h-2.6l3.4-9.2h2.2l3.4,9.2C31.3,25.4,28.7,25.4,28.7,25.4z M26.8,19.6
				L26.1,22h1.5L26.8,19.6z"/>
			<path class="st0" d="M37.6,25.4h-5.2v-9.2h4.8c0.2,0,0.4,0,0.5,0.1c0.2,0,0.4,0.1,0.5,0.2c0.2,0.1,0.3,0.2,0.5,0.3
				c0.2,0.1,0.3,0.2,0.4,0.4c0.2,0.2,0.4,0.5,0.5,0.8s0.2,0.6,0.2,0.9c0,0.4-0.1,0.7-0.2,1c-0.1,0.3-0.3,0.6-0.6,0.9
				c0.2,0.1,0.3,0.2,0.5,0.4c0.1,0.2,0.3,0.3,0.4,0.5c0.1,0.2,0.2,0.4,0.2,0.6c0.1,0.2,0.1,0.4,0.1,0.6c0,0.3-0.1,0.7-0.2,1
				c-0.1,0.3-0.3,0.6-0.5,0.8c-0.2,0.2-0.5,0.4-0.8,0.6C38.3,25.4,37.9,25.4,37.6,25.4z M36.4,18.1h-1.7V20h1.7
				c0.3,0,0.5-0.1,0.7-0.3c0.2-0.2,0.3-0.4,0.3-0.7c0-0.3-0.1-0.5-0.3-0.7C36.9,18.1,36.7,18.1,36.4,18.1z M36.5,21.6h-1.7v1.9h1.7
				c0.3,0,0.5-0.1,0.7-0.3c0.2-0.2,0.3-0.4,0.3-0.7c0-0.3-0.1-0.5-0.3-0.7C37,21.7,36.8,21.6,36.5,21.6z"/>
			<path class="st0" d="M45.6,25.7c-0.7,0-1.3-0.1-1.9-0.4c-0.6-0.3-1.1-0.6-1.6-1c-0.4-0.4-0.8-1-1.1-1.6s-0.4-1.2-0.4-1.9
				c0-0.7,0.1-1.3,0.4-1.9c0.3-0.6,0.6-1.1,1.1-1.6c0.4-0.4,1-0.8,1.6-1c0.6-0.3,1.2-0.4,1.9-0.4s1.3,0.1,1.9,0.4
				c0.6,0.3,1.1,0.6,1.6,1c0.4,0.4,0.8,1,1.1,1.6s0.4,1.2,0.4,1.9c0,0.7-0.1,1.3-0.4,1.9c-0.3,0.6-0.6,1.1-1.1,1.6
				c-0.4,0.4-1,0.8-1.6,1C46.9,25.6,46.2,25.7,45.6,25.7z M45.6,18.3c-0.3,0-0.7,0.1-1,0.2s-0.6,0.3-0.8,0.6
				c-0.2,0.2-0.4,0.5-0.5,0.8s-0.2,0.6-0.2,1c0,0.3,0.1,0.7,0.2,1c0.1,0.3,0.3,0.6,0.5,0.8c0.2,0.2,0.5,0.4,0.8,0.6
				c0.3,0.1,0.6,0.2,1,0.2c0.3,0,0.7-0.1,1-0.2s0.6-0.3,0.8-0.6c0.2-0.2,0.4-0.5,0.5-0.8s0.2-0.6,0.2-1c0-0.3-0.1-0.7-0.2-1
				c-0.1-0.3-0.3-0.6-0.5-0.8c-0.2-0.2-0.5-0.4-0.8-0.6C46.2,18.4,45.9,18.3,45.6,18.3z"/>
			<path class="st0" d="M59.1,22.1c0,0.4-0.1,0.8-0.2,1.2c-0.1,0.4-0.3,0.7-0.6,1s-0.5,0.6-0.9,0.8c-0.3,0.2-0.7,0.4-1.1,0.5
				c-0.2,0.1-0.4,0.1-0.5,0.1c-0.2,0-0.4,0-0.5,0c-0.2,0-0.4,0-0.5,0c-0.2,0-0.4-0.1-0.5-0.1c-0.4-0.1-0.8-0.3-1.1-0.5
				s-0.6-0.5-0.9-0.8c-0.3-0.3-0.4-0.6-0.6-1c-0.1-0.4-0.2-0.8-0.2-1.2v-5.9H54v5.7c0,0.2,0,0.3,0.1,0.5c0.1,0.1,0.2,0.3,0.3,0.4
				s0.3,0.2,0.4,0.3c0.2,0.1,0.3,0.1,0.5,0.1s0.3,0,0.5-0.1s0.3-0.1,0.4-0.3c0.1-0.1,0.2-0.2,0.3-0.4c0.1-0.1,0.1-0.3,0.1-0.5v-5.7
				h2.6L59.1,22.1L59.1,22.1z"/>
			<path class="st0" d="M68.2,18.5h-2.5v7h-2.5v-7h-2.5l-0.2-0.2v-2.1h7.9v2.1L68.2,18.5z"/>
		</g>
	</g>
</g>
<g id="Capa_5">
</g>
<g id="Capa_6">
</g>
</svg>
