<?xml version="1.0" encoding="utf-8"?>
<!-- Generator: Adobe Illustrator 22.0.1, SVG Export Plug-In . SVG Version: 6.00 Build 0)  -->
<svg version="1.1" id="Layer_1" xmlns="http://www.w3.org/2000/svg" xmlns:xlink="http://www.w3.org/1999/xlink" x="0px" y="0px"
	 viewBox="0 0 80 80" style="enable-background:new 0 0 80 80;" xml:space="preserve">
<style type="text/css">
	.st0{fill:none;stroke:#D7D3E0;stroke-width:2;stroke-linecap:square;stroke-miterlimit:10;}
</style>
<g id="Capa_1">
</g>
<g id="Capa_2">
</g>
<g id="Capa_3">
</g>
<g id="Capa_4">
</g>
<g id="Capa_5">
</g>
<g id="Capa_6">
	<path class="st0" d="M77.8,37.9c-1.7-7.3-9.8-10-12.3-11.2c-2-1-8.7-3.2-8.7-3.2s2.3,8.3-0.7,10.1c-3.4,2.1-10,0-10,0l-1.5-12.2
		L42,25.8h-4l-2.6-4.4l-1.5,12.2c0,0-6.6,2.1-10,0c-3-1.9-0.7-10.1-0.7-10.1s-6.7,2.2-8.7,3.2C12,28,3.9,30.6,2.2,37.9
		c-0.3,1.6-0.1,3.5,0.2,5.1c1.4,7.6,8.3,10.7,14.5,13.7c0,0-3.8-3.6-1.6-7.2c2.2-3.6,9.7-1,10.8,1.7c0,0,2.8-4.3,7.4-2.1
		c4.1,2,6.3,9.3,6.3,9.3s2.6-7.3,6.7-9.3c4.7-2.2,7.4,2.1,7.4,2.1c1.2-2.8,8.6-5.3,10.8-1.7c2.2,3.6-1.6,7.2-1.6,7.2
		c6.4-3.1,13.1-6,14.5-13.7C77.9,41.4,78.1,39.5,77.8,37.9z"/>
</g>
</svg>
