<svg width="45" height="45" viewBox="0 0 45 45" fill="none" xmlns="http://www.w3.org/2000/svg">
<path d="M39.375 5.625V42.1875H9.84375C7.51359 42.1875 5.625 40.2989 5.625 37.9688C5.625 35.6386 7.51359 33.75 9.84375 33.75H36.5625V0H8.4375C5.34375 0 2.8125 2.53125 2.8125 5.625V39.375C2.8125 42.4688 5.34375 45 8.4375 45H42.1875V5.625H39.375Z" fill="white"/>
<path d="M9.84656 36.5625C9.84516 36.5625 9.84516 36.5625 9.84375 36.5625C9.0675 36.5625 8.4375 37.1925 8.4375 37.9688C8.4375 38.745 9.0675 39.375 9.84375 39.375C9.84516 39.375 9.84516 39.375 9.84656 39.375H36.5611V36.5625H9.84656Z" fill="white"/>
</svg>
